# xmcd CD database file
#
# Track frame offsets:
#	150
#	55444
#	87041
#	111689
#	142338
#	170144
#	201110
#	226704
#	262410
#
# Disc length: 3764 seconds
#
# Revision: 0
# Processed by: cddbd v1.5.1PL0 Copyright (c) Steve Scherf et al.
# Submitted via: CDex 1.51
#
DISCID=8e0eb209
DTITLE=Marc Ribot y Los Cubanos Postizos - Banlieues Bleues Paris
DYEAR=2003
DGENRE=Jazz
TTITLE0=Marc Ribot y Los Cubanos Postizos - Aurora En Pekín
TTITLE1=Marc Ribot y Los Cubanos Postizos - El Divorcio
TTITLE2=Marc Ribot y Los Cubanos Postizos - Baile Baile Baile
TTITLE3=Marc Ribot y Los Cubanos Postizos - Obsession
TTITLE4=Marc Ribot y Los Cubanos Postizos - No Puedo Freinar
TTITLE5=Marc Ribot y Los Cubanos Postizos - Postizo
TTITLE6=Marc Ribot y Los Cubanos Postizos - So Formo El Barchincho
TTITLE7=Marc Ribot y Los Cubanos Postizos - Aquí Como Allá
TTITLE8=Marc Ribot y Los Cubanos Postizos - Jaguey
EXTD=YEAR: 2003
EXTT0=
EXTT1=
EXTT2=
EXTT3=
EXTT4=
EXTT5=
EXTT6=
EXTT7=
EXTT8=
PLAYORDER=
